<svg width="36" height="36" viewBox="0 0 36 36" fill="none" xmlns="http://www.w3.org/2000/svg">
<rect width="36" height="36" rx="18" fill="#E0714E"/>
<path d="M20.9475 11.3176C20.1991 10.5673 19.1537 10.1541 17.9999 10.1541C16.84 10.1541 15.7911 10.5648 15.0462 11.3105C14.2931 12.0644 13.9262 13.089 14.0123 14.1955C14.1831 16.3783 15.9719 18.154 17.9999 18.154C20.0279 18.154 21.8137 16.3787 21.9871 14.1962C22.0744 13.0997 21.7052 12.0773 20.9475 11.3176Z" fill="white"/>
<path d="M24.769 26.154H11.231C11.0538 26.1561 10.8783 26.1215 10.7173 26.0528C10.5563 25.984 10.4138 25.8828 10.3002 25.7565C10.0502 25.479 9.94945 25.1001 10.0241 24.7168C10.3487 23.0447 11.3617 21.6401 12.954 20.654C14.3686 19.7787 16.1604 19.2969 18 19.2969C19.8396 19.2969 21.6314 19.779 23.046 20.654C24.6383 21.6397 25.6513 23.0444 25.9759 24.7165C26.0505 25.0997 25.9498 25.4786 25.6998 25.7561C25.5863 25.8825 25.4438 25.9838 25.2828 26.0526C25.1218 26.1214 24.9463 26.1561 24.769 26.154Z" fill="white"/>
</svg>
