<svg width="32" height="32" viewBox="0 0 32 32" fill="none" xmlns="http://www.w3.org/2000/svg">
<path fill-rule="evenodd" clip-rule="evenodd" d="M23.8324 7.248C25.5169 7.248 26.8875 8.6186 26.8875 10.3031C26.889 23.4875 26.889 23.4581 26.889 23.3408C26.889 23.3056 26.8889 23.2625 26.889 23.5654C26.889 25.2494 25.5168 26.6195 23.83 26.6195H8.16941C6.4854 26.6195 5.11531 25.2494 5.11531 23.5654C5.1135 11.6984 5.11327 10.2518 5.11328 10.3008C5.11329 10.3269 5.11336 10.7775 5.11329 10.3032C5.11329 8.61865 6.4839 7.24805 8.16842 7.24805H10.2811V6.51845C10.2811 6.23214 10.5132 6 10.7995 6C11.0859 6 11.318 6.23214 11.318 6.51845V7.24805H20.6826V6.51845C20.6826 6.23214 20.9148 6 21.2011 6C21.4874 6 21.7195 6.23214 21.7195 6.51845V7.248H23.8324ZM8.16842 8.28495C7.05554 8.28495 6.15024 9.19025 6.15024 10.3031V12.7464H25.8505V10.3031C25.8505 9.19025 24.9452 8.28495 23.8323 8.28495H21.7194V9.01482C21.7194 9.30114 21.4873 9.53328 21.201 9.53328C20.9147 9.53328 20.6825 9.30114 20.6825 9.01482V8.28495H11.3179V9.01482C11.3179 9.30114 11.0858 9.53328 10.7995 9.53328C10.5132 9.53328 10.281 9.30114 10.281 9.01482V8.28495H8.16842ZM23.8301 25.5825C24.945 25.5825 25.8521 24.6778 25.8521 23.5654V13.7856H6.15231V23.5654C6.15231 24.6778 7.05709 25.5825 8.16945 25.5825H23.8301ZM13.401 22.8095L13.7544 20.7531L12.2602 19.2971C12.119 19.1594 12.0679 18.9534 12.1289 18.7658C12.1899 18.5782 12.3519 18.4412 12.5471 18.4126L14.6121 18.1113L15.5361 16.2415C15.7108 15.8876 16.291 15.8876 16.4657 16.2415L17.3898 18.1113L19.4548 18.4126C19.6499 18.4412 19.8119 18.5781 19.873 18.7658C19.934 18.9534 19.8828 19.1594 19.7416 19.2971L18.2472 20.7533L18.5989 22.81C18.632 23.0044 18.552 23.2009 18.3923 23.3168C18.2333 23.4333 18.0216 23.4482 17.8464 23.3563L16.0006 22.386L14.1528 23.3563C13.978 23.4481 13.7663 23.4328 13.6068 23.3166C13.4473 23.2006 13.3676 23.0039 13.401 22.8095ZM15.4212 18.8146C15.3458 18.9676 15.1999 19.0734 15.0314 19.0982L13.7359 19.2871L14.6734 20.2008C14.7957 20.32 14.8516 20.4916 14.8225 20.66L14.6007 21.9501L15.76 21.3415C15.9108 21.262 16.0914 21.262 16.2422 21.3415L17.3999 21.9501L17.1792 20.6595C17.1506 20.4913 17.2063 20.3197 17.3285 20.2007L18.266 19.2871L16.9706 19.0982C16.802 19.0734 16.6562 18.9676 16.5807 18.8146L16.001 17.6415L15.4212 18.8146Z" fill="#E0714E"/>
</svg>
