<svg width="237" height="25" viewBox="0 0 237 25" fill="none" xmlns="http://www.w3.org/2000/svg">
<g id="barion-card-strip-intl 1" clip-path="url(#clip0_1_1395)">
<path id="white_background" d="M237 0H0V25H237V0Z" fill="white"/>
<g id="barion">
<g id="Group">
<path id="SVGID_1_" d="M50.843 1.90552H1.74521V23.1515H50.843V1.90552Z" fill="#1D95D3"/>
</g>
<g id="Group_2">
<g id="Clip path group">
<mask id="mask0_1_1395" style="mask-type:luminance" maskUnits="userSpaceOnUse" x="1" y="1" width="50" height="23">
<g id="SVGID_3_">
<path id="Vector" d="M50.843 1.90552H1.74521V23.1515H50.843V1.90552Z" fill="white"/>
</g>
</mask>
<g mask="url(#mask0_1_1395)">
<path id="Vector_2" d="M7.80187 3.10254C7.80187 3.10254 3.87427 3.10254 3.87427 7.12093V17.6033C3.87427 17.6033 3.87427 21.6225 7.80187 21.6225H45.8919C45.8919 21.6225 49.819 21.6224 49.819 17.6033V7.12093C49.819 7.12093 49.819 3.10254 45.8919 3.10254H7.80187Z" fill="#1D95D3"/>
</g>
</g>
</g>
<g id="barion_1_">
<path id="path26" d="M43.3458 16.6302V11.8628C43.3458 11.5194 43.224 11.2701 42.981 11.115C42.7378 10.9599 42.4345 10.8819 42.0716 10.8819C41.8938 10.8819 41.724 10.8963 41.5617 10.9252C41.3995 10.9538 41.2645 10.9882 41.1561 11.0293V16.6302H39.1985V10.2202C39.5461 10.0813 39.9746 9.96489 40.4842 9.87078C40.9943 9.77686 41.5462 9.72998 42.141 9.72998C43.168 9.72998 43.9519 9.89918 44.4928 10.2386C45.0333 10.5774 45.3037 11.1111 45.3037 11.8383V16.6301H43.3458V16.6302Z" fill="white"/>
<path id="path30" d="M26.0121 16.6302V9.81494C26.6648 9.81494 27.3283 9.85182 27.97 9.93217V16.6302H26.0121Z" fill="white"/>
<path id="path34_1_" d="M28.0739 8.01387C28.0739 8.25878 27.9676 8.46959 27.7552 8.64512C27.5428 8.82066 27.2862 8.90843 26.9851 8.90843C26.684 8.90843 26.4288 8.82066 26.2206 8.64512C26.012 8.46959 25.9077 8.25878 25.9077 8.01387C25.9077 7.76869 26.012 7.55816 26.2206 7.38244C26.4288 7.20673 26.684 7.11914 26.9851 7.11914C27.2862 7.11914 27.5429 7.20673 27.7552 7.38244C27.9676 7.55816 28.0739 7.76869 28.0739 8.01387Z" fill="white"/>
<path id="path38" d="M24.7976 11.0659C24.527 10.9759 24.2395 10.9269 23.9345 10.919C23.6292 10.9106 23.3802 10.9517 23.1872 11.0413V16.6303H21.2295V10.2202C21.5925 10.0649 22.0153 9.94445 22.4977 9.85846C22.9804 9.77293 23.5731 9.72998 24.2763 9.72998C24.4307 9.72998 24.5928 9.73364 24.7628 9.74221C24.9326 9.75043 25.0678 9.76266 25.1684 9.77891L24.7976 11.0659Z" fill="white"/>
<path id="path42" d="M13.0683 13.027C13.0683 14.1792 12.7477 15.076 12.1066 15.7177C11.4655 16.3592 10.5429 16.6797 9.33784 16.6797C8.7203 16.6797 8.19298 16.6329 7.75685 16.5386C7.32011 16.4444 6.97858 16.328 6.73163 16.1891V6.88599H8.6778V10.0119C8.84753 9.94661 9.04831 9.88724 9.28008 9.83384C9.51184 9.78081 9.79378 9.75402 10.1255 9.75402C10.558 9.75402 10.9563 9.83384 11.319 9.9934C11.6819 10.1526 11.9929 10.3752 12.2517 10.6611C12.5102 10.9476 12.7113 11.2903 12.854 11.6911C12.9967 12.0909 13.0683 12.5366 13.0683 13.027ZM11.0754 13.1378C11.0754 12.8106 11.0486 12.5062 10.9944 12.2242C10.9406 11.9421 10.8518 11.6971 10.7283 11.4887C10.6045 11.2805 10.4481 11.1191 10.259 11.0049C10.07 10.8904 9.83619 10.8331 9.558 10.8331C9.19508 10.8331 8.90154 10.8865 8.6778 10.9927V15.4172C8.7628 15.458 8.86698 15.4906 8.99028 15.5153C9.11411 15.5397 9.26446 15.5519 9.44221 15.5519C9.99073 15.5519 10.3996 15.3314 10.6702 14.8904C10.9406 14.4491 11.0754 13.8647 11.0754 13.1378Z" fill="white"/>
<path id="path46" d="M20.1585 16.6301C20.1585 16.6338 17.0828 16.6777 16.8038 16.6777C16.3575 16.6777 15.9465 16.601 15.5706 16.4481C15.1949 16.2947 14.8719 16.0771 14.6016 15.7954C14.3318 15.5139 14.1202 15.1718 13.9676 14.7701C13.815 14.3685 13.7385 13.9145 13.7385 13.4097C13.7385 12.8544 13.8169 12.3513 13.9737 11.8997C14.13 11.4483 14.3668 11.0607 14.6838 10.7379C15.0012 10.4146 15.3965 10.166 15.8704 9.99189C16.3437 9.81859 16.8979 9.73145 17.532 9.73145C18.0879 9.73145 18.601 9.77912 19.0706 9.87403C19.5405 9.96957 19.9001 10.0416 20.1586 10.1828V16.6301H20.1585ZM18.1896 10.9864C18.1034 10.9445 17.998 10.9077 17.8725 10.8741C17.7474 10.8412 17.5945 10.8246 17.4145 10.8246C16.8586 10.8246 16.4437 11.0362 16.1695 11.4583C15.8955 11.8813 15.7583 12.4983 15.7583 13.3102C15.7583 14.851 16.2948 15.6214 17.3673 15.6214C17.5243 15.6214 17.6767 15.6072 17.8254 15.5776C17.9742 15.5487 18.0958 15.5089 18.1896 15.4599V10.9864Z" fill="white"/>
<path id="path50" d="M33.7158 18.054C36.2552 17.9896 38.2648 15.759 38.2041 13.0721C38.1829 12.1429 37.9171 11.281 37.4737 10.5537C36.5908 10.5408 35.7025 10.8121 35.3713 10.9054C35.9786 11.4311 36.3731 12.223 36.3934 13.1178C36.4214 14.3574 35.7233 15.4361 34.71 15.8983C34.602 15.632 34.5616 15.5324 34.4557 15.2724C33.4646 15.8869 32.0226 16.5717 30.3694 16.6465C31.2265 17.5446 32.4141 18.0867 33.7158 18.054Z" fill="white"/>
<path id="path54" d="M33.4947 8.32173C30.9549 8.38602 28.9458 10.6165 29.0064 13.3033C29.0272 14.2325 29.293 15.0946 29.7367 15.8217C30.6198 15.8349 31.5078 15.5632 31.8384 15.4704C31.2318 14.9443 30.8369 14.1523 30.8171 13.2575C30.7889 12.0182 31.487 10.9397 32.5002 10.4771C32.608 10.7439 32.6484 10.8433 32.7548 11.103C33.7454 10.4885 35.1874 9.8037 36.8408 9.72879C35.9838 8.83146 34.7955 8.28879 33.4947 8.32173Z" fill="white"/>
</g>
</g>
<g id="Group_3">
<g id="XMLID_23_">
<path id="Vector_3" d="M163.854 4.23389H154.906V20.6859H163.854V4.23389Z" fill="#F26522"/>
<path id="XMLID_35_" d="M155.474 12.4598C155.474 9.12218 157.002 6.14959 159.38 4.23379C157.641 2.83272 155.446 1.99683 153.061 1.99683C147.414 1.99683 142.836 6.6812 142.836 12.4598C142.836 18.2383 147.414 22.9227 153.061 22.9227C155.446 22.9227 157.641 22.0868 159.38 20.6858C157.002 18.7699 155.474 15.7975 155.474 12.4598Z" fill="#E51B24"/>
<path id="Vector_4" d="M175.924 12.4598C175.924 18.2383 171.346 22.9227 165.699 22.9227C163.314 22.9227 161.119 22.0868 159.38 20.6858C161.758 18.7699 163.286 15.7975 163.286 12.4598C163.286 9.12209 161.758 6.14959 159.38 4.23379C161.119 2.83272 163.314 1.99683 165.699 1.99683C171.346 1.99683 175.924 6.68129 175.924 12.4598Z" fill="#F99F1C"/>
<path id="Vector_5" d="M174.949 18.9432V18.6064H175.081V18.5377H174.743V18.6064H174.876V18.9432H174.949ZM175.605 18.9432V18.5371H175.501L175.382 18.8165L175.263 18.5371H175.159V18.9432H175.232V18.6368L175.344 18.9009H175.42L175.532 18.6362V18.9432H175.605Z" fill="white"/>
</g>
</g>
<g id="maestro">
<g id="Group_4">
<path id="Vector_6" d="M189.001 22.8945V21.5079C189.001 20.9856 188.676 20.6344 188.152 20.6298C187.877 20.6254 187.592 20.7131 187.394 21.0226C187.245 20.7776 187.01 20.6298 186.68 20.6298C186.45 20.6298 186.224 20.6992 186.048 20.9581V20.6852H185.578V22.8945H186.052V21.6697C186.052 21.286 186.26 21.0827 186.581 21.0827C186.892 21.0827 187.051 21.2906 187.051 21.6652V22.8945H187.525V21.6697C187.525 21.286 187.741 21.0827 188.053 21.0827C188.374 21.0827 188.527 21.2906 188.527 21.6652V22.8945H189.001ZM191.648 21.7899V20.6852H191.178V20.9532C191.029 20.7546 190.803 20.6298 190.497 20.6298C189.891 20.6298 189.417 21.1151 189.417 21.7899C189.417 22.4648 189.891 22.9497 190.497 22.9497C190.803 22.9497 191.029 22.8249 191.178 22.626V22.8945H191.648V21.7899ZM189.9 21.7899C189.9 21.4015 190.149 21.0827 190.555 21.0827C190.944 21.0827 191.206 21.3877 191.206 21.7899C191.206 22.1918 190.944 22.4969 190.555 22.4969C190.149 22.4969 189.9 22.1781 189.9 21.7899ZM201.699 20.6271C201.866 20.6271 202.02 20.6567 202.162 20.7159C202.305 20.7751 202.427 20.8567 202.531 20.9604C202.635 21.0645 202.716 21.1868 202.774 21.3282C202.833 21.47 202.863 21.6235 202.863 21.7898C202.863 21.9557 202.833 22.1095 202.774 22.2509C202.716 22.3928 202.635 22.5153 202.531 22.6192C202.427 22.7227 202.305 22.804 202.162 22.8631C202.02 22.9225 201.866 22.9521 201.699 22.9521C201.532 22.9521 201.378 22.9225 201.236 22.8631C201.094 22.804 200.971 22.7227 200.868 22.6192C200.765 22.5153 200.685 22.3928 200.626 22.2509C200.567 22.1095 200.538 21.9557 200.538 21.7898C200.538 21.6235 200.567 21.47 200.626 21.3282C200.685 21.1868 200.766 21.0645 200.868 20.9604C200.971 20.8567 201.094 20.7751 201.236 20.7159C201.378 20.6567 201.532 20.6271 201.699 20.6271ZM201.699 21.0817C201.603 21.0817 201.514 21.099 201.431 21.1336C201.348 21.1682 201.277 21.2164 201.217 21.2788C201.157 21.3412 201.109 21.4159 201.075 21.5026C201.04 21.5896 201.023 21.6851 201.023 21.7899C201.023 21.8944 201.04 21.9901 201.075 22.077C201.109 22.1638 201.157 22.2385 201.217 22.3006C201.277 22.3631 201.348 22.4114 201.431 22.4461C201.514 22.4806 201.603 22.4982 201.699 22.4982C201.795 22.4982 201.885 22.4806 201.967 22.4461C202.05 22.4114 202.122 22.3631 202.183 22.3006C202.243 22.2385 202.291 22.1638 202.326 22.077C202.361 21.9901 202.378 21.8944 202.378 21.7899C202.378 21.6851 202.361 21.5896 202.326 21.5026C202.291 21.4159 202.244 21.3412 202.183 21.2788C202.122 21.2164 202.05 21.1682 201.967 21.1336C201.885 21.099 201.795 21.0817 201.699 21.0817ZM194.204 21.7899C194.2 21.1013 193.784 20.6298 193.179 20.6298C192.547 20.6298 192.104 21.1013 192.104 21.7899C192.104 22.4923 192.565 22.9497 193.211 22.9497C193.536 22.9497 193.834 22.8664 194.096 22.64L193.865 22.2843C193.685 22.4321 193.455 22.5154 193.238 22.5154C192.935 22.5154 192.66 22.3721 192.592 21.9748H194.195C194.2 21.9146 194.204 21.8544 194.204 21.7899ZM192.596 21.5957C192.646 21.2768 192.836 21.0597 193.17 21.0597C193.473 21.0597 193.667 21.2538 193.716 21.5957H192.596ZM196.182 21.2489C196.051 21.1658 195.785 21.0597 195.509 21.0597C195.252 21.0597 195.098 21.1565 195.098 21.3184C195.098 21.4665 195.261 21.5079 195.464 21.5356L195.685 21.5679C196.155 21.6373 196.44 21.8406 196.44 22.2288C196.44 22.6496 196.078 22.9497 195.455 22.9497C195.103 22.9497 194.778 22.8575 194.52 22.6631L194.741 22.289C194.9 22.4135 195.135 22.52 195.46 22.52C195.78 22.52 195.952 22.4232 195.952 22.2519C195.952 22.1272 195.83 22.0581 195.573 22.0209L195.351 21.9884C194.868 21.9191 194.606 21.6973 194.606 21.337C194.606 20.8981 194.958 20.6298 195.505 20.6298C195.848 20.6298 196.16 20.7086 196.385 20.8608L196.182 21.2489ZM198.44 21.1243H197.672V22.1228C197.672 22.3445 197.748 22.4923 197.983 22.4923C198.105 22.4923 198.259 22.4506 198.399 22.3676L198.534 22.7789C198.385 22.885 198.15 22.9498 197.947 22.9498C197.392 22.9498 197.197 22.6446 197.197 22.1317V21.1244H196.759V20.6853H197.197L197.197 20.0154H197.672V20.6853H198.44V21.1243ZM200.065 20.6298C200.16 20.6298 200.295 20.6484 200.399 20.69L200.255 21.1429C200.155 21.1013 200.056 21.0873 199.961 21.0873C199.654 21.0873 199.501 21.2906 199.501 21.6558V22.8945H199.031V20.6852H199.496V20.9532C199.618 20.759 199.794 20.6298 200.065 20.6298ZM203.317 22.5726C203.347 22.5726 203.376 22.5786 203.402 22.5898C203.429 22.6016 203.452 22.617 203.471 22.6372C203.491 22.6572 203.507 22.6801 203.519 22.7073C203.53 22.734 203.536 22.7625 203.536 22.7923C203.536 22.8226 203.53 22.8511 203.519 22.8776C203.507 22.9043 203.491 22.9274 203.471 22.9472C203.452 22.9672 203.429 22.9829 203.402 22.9946C203.376 23.0064 203.347 23.0123 203.317 23.0123C203.286 23.0123 203.257 23.0064 203.23 22.9946C203.203 22.9829 203.18 22.9671 203.16 22.9472C203.141 22.9273 203.125 22.9043 203.114 22.8776C203.103 22.8511 203.097 22.8226 203.097 22.7923C203.097 22.7625 203.103 22.734 203.114 22.7073C203.125 22.6801 203.141 22.6572 203.16 22.6372C203.18 22.6169 203.203 22.6016 203.23 22.5898C203.257 22.5787 203.286 22.5726 203.317 22.5726ZM203.317 22.9641C203.34 22.9641 203.362 22.9595 203.382 22.9506C203.402 22.9415 203.419 22.9294 203.434 22.914C203.45 22.8987 203.461 22.8802 203.47 22.8592C203.479 22.8386 203.483 22.8164 203.483 22.7924C203.483 22.7689 203.478 22.7467 203.47 22.7261C203.461 22.7052 203.45 22.6866 203.434 22.6714C203.419 22.6559 203.402 22.6438 203.382 22.6351C203.362 22.6261 203.34 22.6221 203.317 22.6221C203.293 22.6221 203.271 22.6262 203.251 22.6351C203.23 22.6438 203.212 22.6559 203.197 22.6714C203.182 22.6866 203.17 22.7052 203.162 22.7261C203.153 22.7468 203.149 22.769 203.149 22.7924C203.149 22.8164 203.153 22.8386 203.162 22.8592C203.171 22.8802 203.182 22.8987 203.197 22.914C203.213 22.9294 203.23 22.9416 203.251 22.9506C203.271 22.9595 203.293 22.9641 203.317 22.9641ZM203.33 22.6898C203.355 22.6898 203.375 22.6956 203.389 22.7074C203.403 22.7188 203.41 22.7344 203.41 22.7548C203.41 22.7715 203.404 22.7857 203.393 22.7964C203.382 22.8078 203.366 22.8145 203.346 22.8168L203.411 22.8942H203.36L203.3 22.8173H203.28V22.8942H203.238V22.6898H203.33ZM203.28 22.7277V22.7825H203.329C203.34 22.7825 203.349 22.7802 203.356 22.7757C203.362 22.7712 203.366 22.7643 203.366 22.7549C203.366 22.7459 203.362 22.739 203.356 22.7345C203.349 22.7301 203.34 22.7278 203.329 22.7278H203.28V22.7277Z" fill="black"/>
<g id="XMLID_12_">
<path id="Vector_7" d="M197.771 3.82568H190.648V16.9247H197.771V3.82568Z" fill="#7773B5"/>
<path id="XMLID_16_" d="M191.1 10.3751C191.1 7.71756 192.316 5.35095 194.21 3.82551C192.825 2.71015 191.078 2.04443 189.178 2.04443C184.682 2.04443 181.037 5.77408 181.037 10.375C181.037 14.9757 184.682 18.7056 189.178 18.7056C191.078 18.7056 192.825 18.0399 194.21 16.9245C192.316 15.3991 191.1 13.0326 191.1 10.3751Z" fill="#E91D25"/>
<path id="Vector_8" d="M206.605 15.5372V15.269H206.711V15.2145H206.442V15.269H206.548V15.5372H206.605ZM207.128 15.5372V15.2139H207.045L206.95 15.4361L206.856 15.2139H206.773V15.5372H206.831V15.2932L206.92 15.5035H206.981L207.07 15.2926V15.5372H207.128Z" fill="#12A0DB"/>
<path id="Vector_9" d="M207.382 10.375C207.382 14.9757 203.737 18.7056 199.241 18.7056C197.342 18.7056 195.594 18.0399 194.21 16.9245C196.103 15.399 197.319 13.0325 197.319 10.3751C197.319 7.71756 196.103 5.35095 194.21 3.82551C195.594 2.71015 197.342 2.04443 199.241 2.04443C203.737 2.04443 207.382 5.77408 207.382 10.375Z" fill="#12A0DB"/>
</g>
</g>
</g>
<g id="Group_5">
<path id="Vector_10" d="M60.9433 2.34741V22.572H94.2633V2.34741H60.9433Z" fill="white"/>
<path id="Vector_11" d="M66.4625 9.31722L68.4056 16.8207H70.6613L74.1709 8.13062H71.8829L69.6721 14.0309L68.7636 9.41374L66.4625 9.31722Z" fill="#0058A0"/>
<path id="Vector_12" d="M75.0255 8.09839L73.6779 16.8207H75.8089L77.1873 8.09839H75.0255Z" fill="#0058A0"/>
<path id="Vector_13" d="M83.4552 10.183L83.7682 8.35626C83.7682 8.35626 82.828 7.97144 81.7003 7.97144C80.5717 7.97144 78.1275 8.70885 78.1275 10.8562C78.1275 13.0048 81.1672 13.1011 81.1672 14.2867C81.1672 15.4734 78.4412 15.3454 77.6261 14.5764L77.2814 16.4678C77.2814 16.4678 78.5035 16.9492 79.5999 16.9492C80.6968 16.9492 83.4245 16.6929 83.4245 13.9035C83.4245 11.4655 80.3844 11.947 80.3844 10.4722C80.3844 10.4722 80.6968 8.99733 83.4552 10.183Z" fill="#0058A0"/>
<path id="Vector_14" d="M83.2978 16.8207H85.648L86.056 15.5701H88.9384L89.1785 16.8097H91.2158L89.3465 8.1958H87.4661C87.4661 8.1958 86.7766 8.27598 86.4636 9.12553C86.1659 9.93321 83.2978 16.8207 83.2978 16.8207Z" fill="#0058A0"/>
<path id="Vector_15" d="M88.5942 13.7746H86.6822L87.8737 10.5681L88.5942 13.7746Z" fill="white"/>
<path id="Vector_16" d="M69.434 12.8229L68.7635 9.41375C68.7635 9.41375 68.6727 8.1333 67.7811 8.1333H64.1407V8.31116C64.1407 8.31116 67.7432 8.92214 69.434 12.8229Z" fill="#0058A0"/>
<path id="Vector_17" d="M94.2633 18.094H60.9433V23.1485H94.2633V18.094Z" fill="#FAA61A"/>
<path id="Vector_18" d="M94.2633 1.81812H60.9433V6.87222H94.2633V1.81812Z" fill="#0058A0"/>
</g>
<path id="Vector_19" d="M104.822 2.35107V22.7046H138.354V2.35107H104.822Z" fill="white"/>
<path id="Vector_20" d="M132.649 13.8511H130.725L131.924 10.624L132.649 13.8511Z" fill="white"/>
<path id="Vector_21" d="M138.354 19.6428H104.822V23.2848H138.354V19.6428Z" fill="#FAA61A"/>
<path id="Vector_22" d="M138.354 1.81836H104.822V5.40184H138.354V1.81836Z" fill="#0058A0"/>
<path id="Vector_23" d="M118.442 7.09269L115.183 15.0489H113.056L111.452 8.69921C111.355 8.30903 111.271 8.16546 110.975 8.00046C110.491 7.73153 109.692 7.4801 108.99 7.32367L109.037 7.0926H112.461C112.897 7.0926 113.289 7.38956 113.389 7.90349L114.236 12.5079L116.329 7.0926H118.442V7.09269ZM121.317 7.09269L119.654 15.0489H117.642L119.305 7.09269H121.317ZM126.774 12.4514C126.782 10.3518 123.937 10.2354 123.956 9.29742C123.962 9.01215 124.228 8.70849 124.809 8.6309C125.097 8.59278 125.892 8.56251 126.793 8.98724L127.145 7.29912C126.661 7.11983 126.038 6.94751 125.264 6.94751C123.275 6.94751 121.876 8.0284 121.865 9.57724C121.852 10.7228 122.864 11.3614 123.626 11.743C124.41 12.1327 124.673 12.383 124.669 12.7314C124.663 13.2654 124.043 13.5017 123.465 13.5104C122.454 13.5269 121.867 13.2305 121.399 13.0076L121.035 14.7516C121.505 14.9725 122.373 15.1643 123.271 15.1738C125.385 15.1738 126.768 14.1054 126.774 12.4514ZM132.026 15.0489H133.886L132.261 7.09269H130.544C130.157 7.09269 129.832 7.3226 129.688 7.67608L126.669 15.0489H128.782L129.201 13.8605H131.782L132.026 15.0489ZM129.78 12.2304L130.839 9.24242L131.448 12.2304H129.78ZM123.892 17.2391H123.074V18.0173H123.989V18.2515H122.799V16.0918H123.942V16.3258H123.074V17.008H123.892L123.892 17.2391ZM124.411 15.9767H124.687V18.2513H124.411V15.9767ZM125.381 17.5273C125.387 17.9087 125.622 18.0655 125.901 18.0655C126.098 18.0655 126.22 18.0304 126.321 17.9856L126.371 18.1875C126.274 18.2322 126.105 18.2867 125.863 18.2867C125.397 18.2867 125.118 17.9695 125.118 17.5018C125.118 17.0339 125.387 16.6688 125.829 16.6688C126.327 16.6688 126.455 17.1111 126.455 17.3961C126.455 17.4536 126.452 17.4952 126.446 17.5273H125.381ZM126.189 17.3254C126.192 17.1494 126.117 16.8705 125.807 16.8705C125.525 16.8705 125.406 17.13 125.384 17.3254H126.189ZM127.955 18.1968C127.883 18.2323 127.723 18.2867 127.519 18.2867C127.062 18.2867 126.765 17.9695 126.765 17.4953C126.765 17.0179 127.084 16.6688 127.579 16.6688C127.742 16.6688 127.886 16.7103 127.961 16.7522L127.898 16.9666C127.832 16.9313 127.729 16.8927 127.579 16.8927C127.231 16.8927 127.044 17.1588 127.044 17.4794C127.044 17.838 127.269 18.059 127.57 18.059C127.726 18.059 127.829 18.0209 127.908 17.9855L127.955 18.1968ZM128.728 16.329V16.7009H129.122V16.9151H128.728V17.7513C128.728 17.9438 128.781 18.0527 128.934 18.0527C129.009 18.0527 129.053 18.0463 129.094 18.0334L129.106 18.248C129.053 18.2673 128.969 18.2866 128.862 18.2866C128.734 18.2866 128.631 18.2417 128.565 18.1681C128.49 18.0814 128.458 17.9438 128.458 17.7611V16.915H128.223V16.7008H128.458V16.4122L128.728 16.329ZM129.507 17.1847C129.507 17.002 129.503 16.845 129.494 16.7009H129.735L129.748 17.008H129.757C129.826 16.8 129.995 16.6687 130.18 16.6687C130.208 16.6687 130.23 16.6718 130.255 16.6749V16.9409C130.227 16.9347 130.199 16.9347 130.161 16.9347C129.967 16.9347 129.829 17.0818 129.792 17.2934C129.786 17.332 129.782 17.3797 129.782 17.425V18.2515H129.507V17.1847H129.507ZM131.949 17.4631C131.949 18.0368 131.557 18.2867 131.194 18.2867C130.787 18.2867 130.468 17.979 130.468 17.489C130.468 16.9732 130.803 16.6688 131.219 16.6688C131.655 16.6687 131.949 16.9922 131.949 17.4631ZM130.749 17.4792C130.749 17.819 130.937 18.0755 131.207 18.0755C131.47 18.0755 131.667 17.8221 131.667 17.4729C131.667 17.2101 131.538 16.88 131.213 16.88C130.89 16.88 130.749 17.1877 130.749 17.4792ZM132.371 17.1203C132.371 16.957 132.368 16.829 132.358 16.7009H132.603L132.619 16.957H132.624C132.7 16.8128 132.875 16.6687 133.126 16.6687C133.335 16.6687 133.661 16.7969 133.661 17.3286V18.2513H133.386V17.3575C133.386 17.1076 133.295 16.8993 133.035 16.8993C132.856 16.8993 132.715 17.0307 132.666 17.1876C132.653 17.223 132.646 17.2709 132.646 17.3189V18.2512H132.371L132.371 17.1203Z" fill="#0058A0"/>
</g>
<defs>
<clipPath id="clip0_1_1395">
<rect width="237" height="25" fill="white"/>
</clipPath>
</defs>
</svg>
