<svg width="32" height="32" viewBox="0 0 32 32" fill="none" xmlns="http://www.w3.org/2000/svg">
<g id="icons/travel">
<path id="baggage" fill-rule="evenodd" clip-rule="evenodd" d="M6.25183 5.68837C6.25183 4.75721 7.0092 4 7.94019 4H10.725C11.656 4 12.4134 4.75721 12.4134 5.68837V7.08683H14.1239C14.9739 7.08683 15.6652 7.77815 15.6652 8.62822V15.965H16.0924V14.8464C16.0924 14.0146 16.769 13.3382 17.6008 13.3382H21.4685C22.3002 13.3382 22.9768 14.0146 22.9768 14.8464V15.965H25.5242C26.3381 15.965 27 16.6268 27 17.4407V26.5244C27 27.3383 26.3381 28 25.5242 28H13.545C12.7311 28 12.0692 27.3383 12.0692 26.5244V26.1511H8.40288V27.52C8.40288 27.785 8.18817 28 7.92288 28H5.04981C4.78452 28 4.56981 27.785 4.56981 27.52V26.1511H4.54125C3.6913 26.1511 3 25.4598 3 24.6097V8.62822C3 7.77815 3.6913 7.08683 4.54125 7.08683H6.25183V5.68837ZM7.94019 4.96C7.53879 4.96 7.21183 5.28696 7.21183 5.68837V7.08683H11.4534V5.68837C11.4534 5.28696 11.1264 4.96 10.725 4.96H7.94019ZM4.54125 8.04683C4.22093 8.04683 3.96 8.30771 3.96 8.62822V24.6097C3.96 24.9302 4.22093 25.1911 4.54125 25.1911H12.0692V17.4407C12.0692 16.6268 12.7311 15.965 13.545 15.965H14.7052V8.62822C14.7052 8.30771 14.4443 8.04683 14.1239 8.04683H4.54125ZM17.6008 14.2982C17.2985 14.2982 17.0524 14.5443 17.0524 14.8464V15.965H22.0168V14.8464C22.0168 14.5443 21.7707 14.2982 21.4685 14.2982H17.6008ZM13.545 16.925C13.2607 16.925 13.0292 17.1564 13.0292 17.4407V26.5244C13.0292 26.8085 13.2607 27.04 13.545 27.04H16.0705V16.925H13.545ZM17.0305 16.925V27.04H22.0387V16.925H17.0305ZM22.9988 16.925V27.04H25.5242C25.8085 27.04 26.04 26.8085 26.04 26.5244V17.4407C26.04 17.1564 25.8085 16.925 25.5242 16.925H22.9988ZM5.52981 26.1511V27.04H7.44288V26.1511H5.52981ZM6.2524 10.0038C6.2524 9.73879 6.46712 9.52381 6.7324 9.52381H11.9339C12.1992 9.52381 12.4139 9.73879 12.4139 10.0038V13.1962C12.4139 13.4612 12.1992 13.6762 11.9339 13.6762H6.7324C6.46712 13.6762 6.2524 13.4612 6.2524 13.1962V10.0038ZM7.2124 10.4838V12.7162H11.4539V10.4838H7.2124Z" fill="#E0714E"/>
</g>
</svg>
